<svg xmlns="http://www.w3.org/2000/svg" xmlns:xlink="http://www.w3.org/1999/xlink" id="Layer_1" width="512" height="512" x="0" y="0" enable-background="new 0 0 502 502" version="1.1" viewBox="0 0 502 502" xml:space="preserve"><g><g><circle cx="251.493" cy="238.679" r="90.683" fill="#000"/><circle cx="147.503" cy="57.806" r="24.149" fill="#900C3F"/><circle cx="200.237" cy="469.329" r="20.699" fill="#C70039"/><circle cx="467.851" cy="404.767" r="24.149" fill="#FF5733"/><circle cx="437.294" cy="42.035" r="30.063" fill="#FFC300"/><circle cx="40.063" cy="302.256" r="30.063" fill="#581845"/><g><path fill="#000" d="M364.847,128.425c2.56,0,5.118-0.976,7.071-2.929L419.5,77.915c5.365,2.672,11.406,4.183,17.795,4.183 c22.091,0,40.063-17.972,40.063-40.063S459.386,1.971,437.295,1.971s-40.063,17.972-40.063,40.063 c0,8.445,2.633,16.283,7.112,22.751l-46.568,46.568c-3.905,3.905-3.905,10.237,0,14.143 C359.729,127.449,362.287,128.425,364.847,128.425z M437.295,21.971c11.063,0,20.063,9,20.063,20.063s-9,20.063-20.063,20.063 s-20.063-9-20.063-20.063S426.231,21.971,437.295,21.971z"/><path fill="#000" d="M335.276,157.996c2.56,0,5.119-0.977,7.071-2.929l5.914-5.915c3.905-3.905,3.905-10.237-0.001-14.142 c-3.904-3.905-10.237-3.905-14.142,0l-5.914,5.915c-3.905,3.905-3.905,10.237,0.001,14.142 C330.158,157.02,332.717,157.996,335.276,157.996z"/><path fill="#000" d="M200.237,438.63c-16.928,0-30.699,13.771-30.699,30.699s13.771,30.7,30.699,30.7s30.699-13.772,30.699-30.7 S217.165,438.63,200.237,438.63z M200.237,480.029c-5.899,0-10.699-4.8-10.699-10.7c0-5.899,4.8-10.699,10.699-10.699 s10.699,4.8,10.699,10.699C210.937,475.229,206.137,480.029,200.237,480.029z"/><path fill="#000" d="M467.851,370.618c-7.304,0-14.074,2.313-19.633,6.234l-107.57-91.435c7.356-13.976,11.528-29.877,11.528-46.738 c0-55.517-45.166-100.683-100.683-100.683c-12.41,0-24.3,2.263-35.287,6.388l-42.033-65.286c4.675-5.843,7.48-13.245,7.48-21.292 c0-18.83-15.319-34.149-34.149-34.149s-34.149,15.319-34.149,34.149s15.319,34.149,34.149,34.149 c3.539,0,6.953-0.542,10.165-1.545l40.501,62.905c-28.42,17.817-47.359,49.418-47.359,85.364c0,3.15,0.153,6.265,0.437,9.342 L72.235,278.41c-7.307-9.833-19.007-16.217-32.172-16.217C17.973,262.192,0,280.165,0,302.256s17.973,40.063,40.063,40.063 s40.063-17.972,40.063-40.063c0-1.802-0.131-3.574-0.363-5.314l75.389-28.996c8.798,28.905,30.273,52.336,57.923,63.792 l-12.858,80.821c-0.867,5.455,2.851,10.58,8.305,11.447c0.532,0.084,1.062,0.125,1.584,0.125c4.83,0,9.08-3.508,9.863-8.43 l12.435-78.163c6.183,1.192,12.563,1.823,19.088,1.823c31.443,0,59.562-14.492,78.04-37.144l106.395,90.436 c-1.434,3.767-2.227,7.848-2.227,12.113c0,18.83,15.319,34.149,34.149,34.149S502,423.597,502,404.767 S486.681,370.618,467.851,370.618z M133.354,57.806c0-7.802,6.348-14.149,14.149-14.149s14.149,6.348,14.149,14.149 s-6.348,14.149-14.149,14.149S133.354,65.607,133.354,57.806z M40.063,322.319c-11.063,0-20.063-9-20.063-20.063 s9-20.063,20.063-20.063s20.063,9,20.063,20.063S51.127,322.319,40.063,322.319z M251.493,319.362 c-44.489,0-80.684-36.194-80.684-80.683s36.194-80.683,80.684-80.683c44.488,0,80.683,36.194,80.683,80.683 S295.981,319.362,251.493,319.362z M467.851,418.916c-7.802,0-14.149-6.347-14.149-14.149c0-7.802,6.348-14.149,14.149-14.149 S482,396.965,482,404.767S475.652,418.916,467.851,418.916z"/><path fill="#fff" d="M251.493,171.509c-37.038,0-67.17,30.132-67.17,67.169c0,5.523,4.478,10,10,10s10-4.477,10-10 c0-26.009,21.16-47.169,47.17-47.169c5.522,0,10-4.477,10-10S257.016,171.509,251.493,171.509z"/></g></g></g></svg>