<svg xmlns="http://www.w3.org/2000/svg" viewBox="0 0 502 502" width="512" height="512"><circle cx="251.493" cy="238.679" r="90.683" fill="#3f3d55"/><circle cx="147.503" cy="57.806" r="24.149" fill="#bbcfff"/><circle cx="200.237" cy="469.329" r="20.699" fill="#bbcfff"/><circle cx="467.851" cy="404.767" r="24.149" fill="#192965"/><circle cx="437.294" cy="42.035" r="30.063" fill="#faafff"/><circle cx="40.063" cy="302.256" r="30.063" fill="#faafff"/><path d="M364.847 128.425c2.56 0 5.118-.976 7.071-2.929L419.5 77.915a39.806 39.806 0 0017.795 4.183c22.091 0 40.063-17.972 40.063-40.063S459.386 1.971 437.295 1.971s-40.063 17.972-40.063 40.063a39.833 39.833 0 007.112 22.751l-46.568 46.568c-3.905 3.905-3.905 10.237 0 14.143a9.966 9.966 0 007.071 2.929zm72.448-106.454c11.063 0 20.063 9 20.063 20.063s-9 20.063-20.063 20.063-20.063-9-20.063-20.063 8.999-20.063 20.063-20.063zM335.276 157.996c2.56 0 5.119-.977 7.071-2.929l5.914-5.915c3.905-3.905 3.905-10.237-.001-14.142-3.904-3.905-10.237-3.905-14.142 0l-5.914 5.915c-3.905 3.905-3.905 10.237.001 14.142a9.968 9.968 0 007.071 2.929zM200.237 438.63c-16.928 0-30.699 13.771-30.699 30.699s13.771 30.7 30.699 30.7 30.699-13.772 30.699-30.7-13.771-30.699-30.699-30.699zm0 41.399c-5.899 0-10.699-4.8-10.699-10.7 0-5.899 4.8-10.699 10.699-10.699s10.699 4.8 10.699 10.699c.001 5.9-4.799 10.7-10.699 10.7zm267.614-109.411a33.951 33.951 0 00-19.633 6.234l-107.57-91.435c7.356-13.976 11.528-29.877 11.528-46.738 0-55.517-45.166-100.683-100.683-100.683-12.41 0-24.3 2.263-35.287 6.388l-42.033-65.286c4.675-5.843 7.48-13.245 7.48-21.292 0-18.83-15.319-34.149-34.149-34.149s-34.149 15.319-34.149 34.149 15.319 34.149 34.149 34.149c3.539 0 6.953-.542 10.165-1.545l40.501 62.905c-28.42 17.817-47.359 49.418-47.359 85.364 0 3.15.153 6.265.437 9.342L72.235 278.41c-7.307-9.833-19.007-16.217-32.172-16.217C17.973 262.192 0 280.165 0 302.256s17.973 40.063 40.063 40.063 40.063-17.972 40.063-40.063c0-1.802-.131-3.574-.363-5.314l75.389-28.996c8.798 28.905 30.273 52.336 57.923 63.792l-12.858 80.821c-.867 5.455 2.851 10.58 8.305 11.447a10.16 10.16 0 001.584.125c4.83 0 9.08-3.508 9.863-8.43l12.435-78.163a100.751 100.751 0 0019.088 1.823c31.443 0 59.562-14.492 78.04-37.144l106.395 90.436a33.973 33.973 0 00-2.227 12.113c0 18.83 15.319 34.149 34.149 34.149S502 423.597 502 404.767s-15.319-34.149-34.149-34.149zM133.354 57.806c0-7.802 6.348-14.149 14.149-14.149s14.149 6.348 14.149 14.149-6.348 14.149-14.149 14.149-14.149-6.348-14.149-14.149zM40.063 322.319c-11.063 0-20.063-9-20.063-20.063s9-20.063 20.063-20.063 20.063 9 20.063 20.063-8.999 20.063-20.063 20.063zm211.43-2.957c-44.489 0-80.684-36.194-80.684-80.683s36.194-80.683 80.684-80.683c44.488 0 80.683 36.194 80.683 80.683s-36.195 80.683-80.683 80.683zm216.358 99.554c-7.802 0-14.149-6.347-14.149-14.149 0-7.802 6.348-14.149 14.149-14.149S482 396.965 482 404.767s-6.348 14.149-14.149 14.149z" fill="#3f3d55"/><path d="M251.493 171.509c-37.038 0-67.17 30.132-67.17 67.169 0 5.523 4.478 10 10 10s10-4.477 10-10c0-26.009 21.16-47.169 47.17-47.169 5.522 0 10-4.477 10-10s-4.477-10-10-10z" fill="#fff"/></svg>